G04 ================== begin FILE IDENTIFICATION RECORD ==================*
G04 Layout Name:  C:/Users/drago/Desktop/PROIECT1-CEF-FINAL/P1-CEF-DRAGOTONIU.brd*
G04 Film Name:    SSTOP*
G04 File Format:  Gerber RS274X*
G04 File Origin:  Cadence Allegro 17.2-S025*
G04 Origin Date:  Fri Dec 05 18:12:10 2025*
G04 *
G04 Layer:  USER PART NUMBER/SILKSCREEN_TOP*
G04 Layer:  TOLERANCE/SILKSCREEN_TOP*
G04 Layer:  REF DES/SILKSCREEN_TOP*
G04 Layer:  PACKAGE GEOMETRY/SILKSCREEN_TOP*
G04 Layer:  DEVICE TYPE/SILKSCREEN_TOP*
G04 Layer:  COMPONENT VALUE/SILKSCREEN_TOP*
G04 Layer:  BOARD GEOMETRY/SILKSCREEN_TOP*
G04 Layer:  BOARD GEOMETRY/OUTLINE*
G04 *
G04 Offset:    (0.0000 0.0000)*
G04 Mirror:    No*
G04 Mode:      Positive*
G04 Rotation:  0*
G04 FullContactRelief:  No*
G04 UndefLineWidth:     0.0000*
G04 ================== end FILE IDENTIFICATION RECORD ====================*
%FSLAX25Y25*MOMM*%
%IR0*IPPOS*OFA0.00000B0.00000*MIA0B0*SFA1.00000B1.00000*%
%ADD10C,.2*%
%ADD11C,.15*%
%ADD12C,.1524*%
G75*
%LPD*%
G75*
G54D10*
G01X547330Y788000D02*
X554000Y775000D01*
X562000Y766330D01*
X571330Y762000D01*
X582000Y766330D01*
X590000Y775000D01*
X598000Y788000D01*
X600670Y805330D01*
Y892000D01*
G01X718260Y762000D02*
Y892000D01*
X668930Y798830D01*
X735590D01*
G01X377830Y1066500D02*
Y1196500D01*
X411170D01*
X421830Y1190000D01*
X428500Y1181330D01*
X431170Y1164000D01*
X428500Y1146670D01*
X420500Y1135830D01*
X411170Y1129330D01*
X377830D01*
G01X411170D02*
X431170Y1066500D01*
G01X532760D02*
Y1196500D01*
X516760Y1170500D01*
G01Y1066500D02*
X548760D01*
G01X350830Y2429000D02*
X357500Y2416000D01*
X365500Y2407330D01*
X374830Y2403000D01*
X385500Y2407330D01*
X393500Y2416000D01*
X401500Y2429000D01*
X404170Y2446330D01*
Y2533000D01*
G01X476430Y2429000D02*
X484430Y2413830D01*
X495090Y2405170D01*
X507090Y2403000D01*
X517760Y2405170D01*
X528430Y2416000D01*
X535090Y2429000D01*
X536430Y2442000D01*
X533760Y2457160D01*
X524430Y2468000D01*
X515090Y2472330D01*
X503090D01*
G01X515090D02*
X523090Y2478830D01*
X529760Y2489660D01*
X532430Y2502670D01*
X529760Y2515670D01*
X523090Y2526500D01*
X511090Y2533000D01*
X499090Y2530830D01*
X487090Y2522170D01*
G01X728830Y2578500D02*
Y2708500D01*
X762170D01*
X772830Y2702000D01*
X779500Y2693330D01*
X782170Y2676000D01*
X779500Y2658670D01*
X771500Y2647830D01*
X762170Y2641330D01*
X728830D01*
G01X762170D02*
X782170Y2578500D01*
G01X883760D02*
Y2708500D01*
X867760Y2682500D01*
G01Y2578500D02*
X899760D01*
G01X1028020D02*
Y2708500D01*
X978690Y2615330D01*
X1045350D01*
G01X781180Y2198100D02*
X770510Y2200270D01*
X761180Y2208930D01*
X753180Y2221930D01*
X747850Y2237100D01*
X745180Y2254430D01*
Y2271770D01*
X747850Y2289100D01*
X753180Y2304270D01*
X761180Y2317270D01*
X770510Y2325930D01*
X781180Y2328100D01*
X791850Y2325930D01*
X801180Y2317270D01*
X809180Y2304270D01*
X814510Y2289100D01*
X817180Y2271770D01*
Y2254430D01*
X814510Y2237100D01*
X809180Y2221930D01*
X801180Y2208930D01*
X791850Y2200270D01*
X781180Y2198100D01*
G01X791850Y2232770D02*
X807850Y2198100D01*
G01X864870Y2217600D02*
X872870Y2206760D01*
X882200Y2200270D01*
X894200Y2198100D01*
X906200Y2202430D01*
X915530Y2211100D01*
X922200Y2226260D01*
X923530Y2243600D01*
X920870Y2260930D01*
X914200Y2271770D01*
X904870Y2280430D01*
X895530Y2282600D01*
X886200Y2280430D01*
X874200Y2271770D01*
X878200Y2328100D01*
X914200D01*
G01X809830Y3252500D02*
X816500Y3239500D01*
X824500Y3230830D01*
X833830Y3226500D01*
X844500Y3230830D01*
X852500Y3239500D01*
X860500Y3252500D01*
X863170Y3269830D01*
Y3356500D01*
G01X939430Y3334830D02*
X947430Y3347830D01*
X956760Y3354330D01*
X967430Y3356500D01*
X980760Y3352170D01*
X990090Y3341330D01*
X992760Y3328340D01*
X991430Y3315330D01*
X986090Y3304500D01*
X959430Y3282830D01*
X947430Y3267670D01*
X939430Y3246000D01*
X936760Y3226500D01*
X992760D01*
G01X917500Y2997000D02*
X906830Y2999170D01*
X897500Y3007830D01*
X889500Y3020830D01*
X884170Y3036000D01*
X881500Y3053330D01*
Y3070670D01*
X884170Y3088000D01*
X889500Y3103170D01*
X897500Y3116170D01*
X906830Y3124830D01*
X917500Y3127000D01*
X928170Y3124830D01*
X937500Y3116170D01*
X945500Y3103170D01*
X950830Y3088000D01*
X953500Y3070670D01*
Y3053330D01*
X950830Y3036000D01*
X945500Y3020830D01*
X937500Y3007830D01*
X928170Y2999170D01*
X917500Y2997000D01*
G01X928170Y3031670D02*
X944170Y2997000D01*
G01X1030520D02*
Y3127000D01*
X1014520Y3101000D01*
G01Y2997000D02*
X1046520D01*
G01X1242000Y580330D02*
X1112000D01*
Y613670D01*
X1118500Y624330D01*
X1127170Y631000D01*
X1144500Y633670D01*
X1161830Y631000D01*
X1172670Y623000D01*
X1179170Y613670D01*
Y580330D01*
G01Y613670D02*
X1242000Y633670D01*
G01X1133670Y709930D02*
X1120670Y717930D01*
X1114170Y727260D01*
X1112000Y737930D01*
X1116330Y751260D01*
X1127170Y760590D01*
X1140160Y763260D01*
X1153170Y761930D01*
X1164000Y756590D01*
X1185670Y729930D01*
X1200830Y717930D01*
X1222500Y709930D01*
X1242000Y707260D01*
Y763260D01*
G01X1133830Y1296000D02*
Y1426000D01*
X1167170D01*
X1177830Y1419500D01*
X1184500Y1410830D01*
X1187170Y1393500D01*
X1184500Y1376170D01*
X1176500Y1365330D01*
X1167170Y1358830D01*
X1133830D01*
G01X1167170D02*
X1187170Y1296000D01*
G01X1288760D02*
Y1426000D01*
X1272760Y1400000D01*
G01Y1296000D02*
X1304760D01*
G01X1391690Y1404330D02*
X1399690Y1417330D01*
X1409020Y1423830D01*
X1419690Y1426000D01*
X1433020Y1421670D01*
X1442350Y1410830D01*
X1445020Y1397840D01*
X1443690Y1384830D01*
X1438350Y1374000D01*
X1411690Y1352330D01*
X1399690Y1337170D01*
X1391690Y1315500D01*
X1389020Y1296000D01*
X1445020D01*
G01X1458000Y1768330D02*
X1328000D01*
Y1801670D01*
X1334500Y1812330D01*
X1343170Y1819000D01*
X1360500Y1821670D01*
X1377830Y1819000D01*
X1388670Y1811000D01*
X1395170Y1801670D01*
Y1768330D01*
G01Y1801670D02*
X1458000Y1821670D01*
G01Y1920590D02*
X1429840Y1923260D01*
X1406000Y1927260D01*
X1384330Y1932590D01*
X1360500Y1939260D01*
X1328000Y1949930D01*
Y1896590D01*
G01X1403500Y1134000D02*
X1392830Y1136170D01*
X1383500Y1144830D01*
X1375500Y1157830D01*
X1370170Y1173000D01*
X1367500Y1190330D01*
Y1207670D01*
X1370170Y1225000D01*
X1375500Y1240170D01*
X1383500Y1253170D01*
X1392830Y1261830D01*
X1403500Y1264000D01*
X1414170Y1261830D01*
X1423500Y1253170D01*
X1431500Y1240170D01*
X1436830Y1225000D01*
X1439500Y1207670D01*
Y1190330D01*
X1436830Y1173000D01*
X1431500Y1157830D01*
X1423500Y1144830D01*
X1414170Y1136170D01*
X1403500Y1134000D01*
G01X1414170Y1168670D02*
X1430170Y1134000D01*
G01X1513850D02*
X1516520Y1162160D01*
X1520520Y1186000D01*
X1525850Y1207670D01*
X1532520Y1231500D01*
X1543190Y1264000D01*
X1489850D01*
G01X1620000Y2537830D02*
X1490000D01*
Y2571170D01*
X1496500Y2581830D01*
X1505170Y2588500D01*
X1522500Y2591170D01*
X1539830Y2588500D01*
X1550670Y2580500D01*
X1557170Y2571170D01*
Y2537830D01*
G01Y2571170D02*
X1620000Y2591170D01*
G01Y2692760D02*
X1490000D01*
X1516000Y2676760D01*
G01X1620000D02*
Y2708760D01*
G01X1604840Y2798350D02*
X1615670Y2807690D01*
X1620000Y2818350D01*
X1615670Y2829020D01*
X1602670Y2838350D01*
X1583170Y2845020D01*
X1563670Y2847690D01*
X1539830D01*
X1520330Y2845020D01*
X1503000Y2838350D01*
X1494330Y2830350D01*
X1490000Y2821020D01*
X1494330Y2810350D01*
X1503000Y2802350D01*
X1516000Y2797020D01*
X1533340Y2794350D01*
X1548500Y2797020D01*
X1563670Y2803690D01*
X1572340Y2811690D01*
X1574500Y2821020D01*
X1570170Y2831690D01*
X1559330Y2839690D01*
X1539830Y2847690D01*
G01X1754830Y1876500D02*
Y2006500D01*
X1788170D01*
X1798830Y2000000D01*
X1805500Y1991330D01*
X1808170Y1974000D01*
X1805500Y1956670D01*
X1797500Y1945830D01*
X1788170Y1939330D01*
X1754830D01*
G01X1788170D02*
X1808170Y1876500D01*
G01X1909760D02*
Y2006500D01*
X1893760Y1980500D01*
G01Y1876500D02*
X1925760D01*
G01X2008690Y1902500D02*
X2016690Y1887330D01*
X2027350Y1878670D01*
X2039350Y1876500D01*
X2050020Y1878670D01*
X2060690Y1889500D01*
X2067350Y1902500D01*
X2068690Y1915500D01*
X2066020Y1930660D01*
X2056690Y1941500D01*
X2047350Y1945830D01*
X2035350D01*
G01X2047350D02*
X2055350Y1952330D01*
X2062020Y1963160D01*
X2064690Y1976170D01*
X2062020Y1989170D01*
X2055350Y2000000D01*
X2043350Y2006500D01*
X2031350Y2004330D01*
X2019350Y1995670D01*
G01X1540500Y2268000D02*
X1529830Y2270170D01*
X1520500Y2278830D01*
X1512500Y2291830D01*
X1507170Y2307000D01*
X1504500Y2324330D01*
Y2341670D01*
X1507170Y2359000D01*
X1512500Y2374170D01*
X1520500Y2387170D01*
X1529830Y2395830D01*
X1540500Y2398000D01*
X1551170Y2395830D01*
X1560500Y2387170D01*
X1568500Y2374170D01*
X1573830Y2359000D01*
X1576500Y2341670D01*
Y2324330D01*
X1573830Y2307000D01*
X1568500Y2291830D01*
X1560500Y2278830D01*
X1551170Y2270170D01*
X1540500Y2268000D01*
G01X1551170Y2302670D02*
X1567170Y2268000D01*
G01X1653520D02*
Y2398000D01*
X1637520Y2372000D01*
G01Y2268000D02*
X1669520D01*
G01X1782540D02*
Y2398000D01*
X1733210Y2304830D01*
X1799870D01*
G01X1214830Y3213000D02*
Y3343000D01*
X1248170D01*
X1258830Y3336500D01*
X1265500Y3327830D01*
X1268170Y3310500D01*
X1265500Y3293170D01*
X1257500Y3282330D01*
X1248170Y3275830D01*
X1214830D01*
G01X1248170D02*
X1268170Y3213000D01*
G01X1369760D02*
X1379090Y3215170D01*
X1389760Y3221660D01*
X1396430Y3232500D01*
X1399090Y3247670D01*
X1396430Y3262830D01*
X1388430Y3275830D01*
X1376430Y3282330D01*
X1363090D01*
X1355090Y3286670D01*
X1348430Y3297500D01*
X1345760Y3312670D01*
X1349760Y3327830D01*
X1359090Y3338670D01*
X1369760Y3343000D01*
X1380430Y3338670D01*
X1389760Y3327830D01*
X1393760Y3312670D01*
X1391090Y3297500D01*
X1384430Y3286670D01*
X1376430Y3282330D01*
X1363090D01*
X1351090Y3275830D01*
X1343090Y3262830D01*
X1340430Y3247670D01*
X1343090Y3232500D01*
X1349760Y3221660D01*
X1360430Y3215170D01*
X1369760Y3213000D01*
G01X1242000Y2564830D02*
X1112000D01*
Y2598170D01*
X1118500Y2608830D01*
X1127170Y2615500D01*
X1144500Y2618170D01*
X1161830Y2615500D01*
X1172670Y2607500D01*
X1179170Y2598170D01*
Y2564830D01*
G01Y2598170D02*
X1242000Y2618170D01*
G01X1187840Y2694430D02*
X1172670Y2703760D01*
X1164000Y2711760D01*
X1159670Y2722430D01*
X1164000Y2731760D01*
X1172670Y2738430D01*
X1185670Y2743760D01*
X1200830Y2745090D01*
X1213840Y2743760D01*
X1226840Y2738430D01*
X1237670Y2730430D01*
X1242000Y2721090D01*
X1237670Y2710430D01*
X1224670Y2701090D01*
X1205170Y2695760D01*
X1183500Y2694430D01*
X1155340Y2697090D01*
X1140160Y2701090D01*
X1125000Y2707760D01*
X1114170Y2717090D01*
X1112000Y2726430D01*
X1116330Y2735760D01*
X1127170Y2742430D01*
G01X1957500Y593830D02*
X1827500D01*
Y627170D01*
X1834000Y637830D01*
X1842670Y644500D01*
X1860000Y647170D01*
X1877330Y644500D01*
X1888170Y636500D01*
X1894670Y627170D01*
Y593830D01*
G01Y627170D02*
X1957500Y647170D01*
G01X1931500Y719430D02*
X1946670Y727430D01*
X1955330Y738090D01*
X1957500Y750090D01*
X1955330Y760760D01*
X1944500Y771430D01*
X1931500Y778090D01*
X1918500Y779430D01*
X1903340Y776760D01*
X1892500Y767430D01*
X1888170Y758090D01*
Y746090D01*
G01Y758090D02*
X1881670Y766090D01*
X1870840Y772760D01*
X1857830Y775430D01*
X1844830Y772760D01*
X1834000Y766090D01*
X1827500Y754090D01*
X1829670Y742090D01*
X1838330Y730090D01*
G01X2483830Y526500D02*
Y656500D01*
X2517170D01*
X2527830Y650000D01*
X2534500Y641330D01*
X2537170Y624000D01*
X2534500Y606670D01*
X2526500Y595830D01*
X2517170Y589330D01*
X2483830D01*
G01X2517170D02*
X2537170Y526500D01*
G01X2654760D02*
Y656500D01*
X2605430Y563330D01*
X2672090D01*
G01X2105830Y675000D02*
Y805000D01*
X2139170D01*
X2149830Y798500D01*
X2156500Y789830D01*
X2159170Y772500D01*
X2156500Y755170D01*
X2148500Y744330D01*
X2139170Y737830D01*
X2105830D01*
G01X2139170D02*
X2159170Y675000D01*
G01X2231430Y694500D02*
X2239430Y683660D01*
X2248760Y677170D01*
X2260760Y675000D01*
X2272760Y679330D01*
X2282090Y688000D01*
X2288760Y703160D01*
X2290090Y720500D01*
X2287430Y737830D01*
X2280760Y748670D01*
X2271430Y757330D01*
X2262090Y759500D01*
X2252760Y757330D01*
X2240760Y748670D01*
X2244760Y805000D01*
X2280760D01*
G01X2227330Y1552500D02*
Y1682500D01*
X2260670D01*
X2271330Y1676000D01*
X2278000Y1667330D01*
X2280670Y1650000D01*
X2278000Y1632670D01*
X2270000Y1621830D01*
X2260670Y1615330D01*
X2227330D01*
G01X2260670D02*
X2280670Y1552500D01*
G01X2382260D02*
Y1682500D01*
X2366260Y1656500D01*
G01Y1552500D02*
X2398260D01*
G01X2510520Y1682500D02*
X2499850Y1678170D01*
X2491850Y1667330D01*
X2486520Y1654340D01*
X2482520Y1637000D01*
X2481190Y1617500D01*
X2482520Y1598000D01*
X2486520Y1580660D01*
X2491850Y1567660D01*
X2499850Y1556830D01*
X2510520Y1552500D01*
X2521190Y1556830D01*
X2529190Y1567660D01*
X2534520Y1580660D01*
X2538520Y1598000D01*
X2539850Y1617500D01*
X2538520Y1637000D01*
X2534520Y1654340D01*
X2529190Y1667330D01*
X2521190Y1678170D01*
X2510520Y1682500D01*
G01X2256330Y1523170D02*
X2248330Y1529670D01*
X2239000Y1534000D01*
X2228330D01*
X2216330Y1527500D01*
X2207000Y1516670D01*
X2200330Y1503670D01*
X2195000Y1482000D01*
X2193670Y1462500D01*
X2196330Y1443000D01*
X2200330Y1430000D01*
X2208330Y1417000D01*
X2217670Y1408330D01*
X2227000Y1404000D01*
X2236330D01*
X2245670Y1408330D01*
X2253670Y1414830D01*
X2260330Y1423500D01*
G01X2355260Y1404000D02*
Y1534000D01*
X2339260Y1508000D01*
G01Y1404000D02*
X2371260D01*
G01X2051500Y1147500D02*
X2040830Y1149670D01*
X2031500Y1158330D01*
X2023500Y1171330D01*
X2018170Y1186500D01*
X2015500Y1203830D01*
Y1221170D01*
X2018170Y1238500D01*
X2023500Y1253670D01*
X2031500Y1266670D01*
X2040830Y1275330D01*
X2051500Y1277500D01*
X2062170Y1275330D01*
X2071500Y1266670D01*
X2079500Y1253670D01*
X2084830Y1238500D01*
X2087500Y1221170D01*
Y1203830D01*
X2084830Y1186500D01*
X2079500Y1171330D01*
X2071500Y1158330D01*
X2062170Y1149670D01*
X2051500Y1147500D01*
G01X2062170Y1182170D02*
X2078170Y1147500D01*
G01X2139190Y1201660D02*
X2148520Y1216830D01*
X2156520Y1225500D01*
X2167190Y1229830D01*
X2176520Y1225500D01*
X2183190Y1216830D01*
X2188520Y1203830D01*
X2189850Y1188670D01*
X2188520Y1175660D01*
X2183190Y1162660D01*
X2175190Y1151830D01*
X2165850Y1147500D01*
X2155190Y1151830D01*
X2145850Y1164830D01*
X2140520Y1184330D01*
X2139190Y1206000D01*
X2141850Y1234160D01*
X2145850Y1249340D01*
X2152520Y1264500D01*
X2161850Y1275330D01*
X2171190Y1277500D01*
X2180520Y1273170D01*
X2187190Y1262330D01*
G01X1876330Y2308500D02*
Y2438500D01*
X1909670D01*
X1920330Y2432000D01*
X1927000Y2423330D01*
X1929670Y2406000D01*
X1927000Y2388670D01*
X1919000Y2377830D01*
X1909670Y2371330D01*
X1876330D01*
G01X1909670D02*
X1929670Y2308500D01*
G01X2005930Y2416830D02*
X2013930Y2429830D01*
X2023260Y2436330D01*
X2033930Y2438500D01*
X2047260Y2434170D01*
X2056590Y2423330D01*
X2059260Y2410340D01*
X2057930Y2397330D01*
X2052590Y2386500D01*
X2025930Y2364830D01*
X2013930Y2349670D01*
X2005930Y2328000D01*
X2003260Y2308500D01*
X2059260D01*
G01X2130190Y2334500D02*
X2138190Y2319330D01*
X2148850Y2310670D01*
X2160850Y2308500D01*
X2171520Y2310670D01*
X2182190Y2321500D01*
X2188850Y2334500D01*
X2190190Y2347500D01*
X2187520Y2362660D01*
X2178190Y2373500D01*
X2168850Y2377830D01*
X2156850D01*
G01X2168850D02*
X2176850Y2384330D01*
X2183520Y2395160D01*
X2186190Y2408170D01*
X2183520Y2421170D01*
X2176850Y2432000D01*
X2164850Y2438500D01*
X2152850Y2436330D01*
X2140850Y2427670D01*
G01X2186830Y1930500D02*
Y2060500D01*
X2220170D01*
X2230830Y2054000D01*
X2237500Y2045330D01*
X2240170Y2028000D01*
X2237500Y2010670D01*
X2229500Y1999830D01*
X2220170Y1993330D01*
X2186830D01*
G01X2220170D02*
X2240170Y1930500D01*
G01X2341760D02*
Y2060500D01*
X2325760Y2034500D01*
G01Y1930500D02*
X2357760D01*
G01X2470020D02*
Y2060500D01*
X2454020Y2034500D01*
G01Y1930500D02*
X2486020D01*
G01X2241000Y2942830D02*
X2111000D01*
Y2976170D01*
X2117500Y2986830D01*
X2126170Y2993500D01*
X2143500Y2996170D01*
X2160830Y2993500D01*
X2171670Y2985500D01*
X2178170Y2976170D01*
Y2942830D01*
G01Y2976170D02*
X2241000Y2996170D01*
G01Y3097760D02*
X2111000D01*
X2137000Y3081760D01*
G01X2241000D02*
Y3113760D01*
G01Y3226020D02*
X2238830Y3235350D01*
X2232340Y3246020D01*
X2221500Y3252690D01*
X2206330Y3255350D01*
X2191170Y3252690D01*
X2178170Y3244690D01*
X2171670Y3232690D01*
Y3219350D01*
X2167330Y3211350D01*
X2156500Y3204690D01*
X2141330Y3202020D01*
X2126170Y3206020D01*
X2115330Y3215350D01*
X2111000Y3226020D01*
X2115330Y3236690D01*
X2126170Y3246020D01*
X2141330Y3250020D01*
X2156500Y3247350D01*
X2167330Y3240690D01*
X2171670Y3232690D01*
Y3219350D01*
X2178170Y3207350D01*
X2191170Y3199350D01*
X2206330Y3196690D01*
X2221500Y3199350D01*
X2232340Y3206020D01*
X2238830Y3216690D01*
X2241000Y3226020D01*
G01X2551500Y2564830D02*
X2421500D01*
Y2598170D01*
X2428000Y2608830D01*
X2436670Y2615500D01*
X2454000Y2618170D01*
X2471330Y2615500D01*
X2482170Y2607500D01*
X2488670Y2598170D01*
Y2564830D01*
G01Y2598170D02*
X2551500Y2618170D01*
G01X2443170Y2694430D02*
X2430170Y2702430D01*
X2423670Y2711760D01*
X2421500Y2722430D01*
X2425830Y2735760D01*
X2436670Y2745090D01*
X2449660Y2747760D01*
X2462670Y2746430D01*
X2473500Y2741090D01*
X2495170Y2714430D01*
X2510330Y2702430D01*
X2532000Y2694430D01*
X2551500Y2691760D01*
Y2747760D01*
G01Y2864020D02*
X2421500D01*
X2514670Y2814690D01*
Y2881350D01*
G01X2254500Y3304670D02*
X2124500D01*
Y3331330D01*
X2131000Y3342000D01*
X2139670Y3350000D01*
X2152660Y3356670D01*
X2167840Y3362000D01*
X2189500Y3363330D01*
X2211170Y3362000D01*
X2226340Y3356670D01*
X2239340Y3350000D01*
X2248000Y3342000D01*
X2254500Y3331330D01*
Y3304670D01*
G01X2146170Y3436930D02*
X2133170Y3444930D01*
X2126670Y3454260D01*
X2124500Y3464930D01*
X2128830Y3478260D01*
X2139670Y3487590D01*
X2152660Y3490260D01*
X2165670Y3488930D01*
X2176500Y3483590D01*
X2198170Y3456930D01*
X2213330Y3444930D01*
X2235000Y3436930D01*
X2254500Y3434260D01*
Y3490260D01*
G01X2295000Y3655670D02*
X2165000D01*
Y3682330D01*
X2171500Y3693000D01*
X2180170Y3701000D01*
X2193160Y3707670D01*
X2208340Y3713000D01*
X2230000Y3714330D01*
X2251670Y3713000D01*
X2266840Y3707670D01*
X2279840Y3701000D01*
X2288500Y3693000D01*
X2295000Y3682330D01*
Y3655670D01*
G01Y3813260D02*
X2165000D01*
X2191000Y3797260D01*
G01X2295000D02*
Y3829260D01*
G01X3131500Y1107000D02*
X3120830Y1109170D01*
X3111500Y1117830D01*
X3103500Y1130830D01*
X3098170Y1146000D01*
X3095500Y1163330D01*
Y1180670D01*
X3098170Y1198000D01*
X3103500Y1213170D01*
X3111500Y1226170D01*
X3120830Y1234830D01*
X3131500Y1237000D01*
X3142170Y1234830D01*
X3151500Y1226170D01*
X3159500Y1213170D01*
X3164830Y1198000D01*
X3167500Y1180670D01*
Y1163330D01*
X3164830Y1146000D01*
X3159500Y1130830D01*
X3151500Y1117830D01*
X3142170Y1109170D01*
X3131500Y1107000D01*
G01X3142170Y1141670D02*
X3158170Y1107000D01*
G01X3215190Y1133000D02*
X3223190Y1117830D01*
X3233850Y1109170D01*
X3245850Y1107000D01*
X3256520Y1109170D01*
X3267190Y1120000D01*
X3273850Y1133000D01*
X3275190Y1146000D01*
X3272520Y1161160D01*
X3263190Y1172000D01*
X3253850Y1176330D01*
X3241850D01*
G01X3253850D02*
X3261850Y1182830D01*
X3268520Y1193660D01*
X3271190Y1206670D01*
X3268520Y1219670D01*
X3261850Y1230500D01*
X3249850Y1237000D01*
X3237850Y1234830D01*
X3225850Y1226170D01*
G01X2740000Y1269000D02*
X2729330Y1271170D01*
X2720000Y1279830D01*
X2712000Y1292830D01*
X2706670Y1308000D01*
X2704000Y1325330D01*
Y1342670D01*
X2706670Y1360000D01*
X2712000Y1375170D01*
X2720000Y1388170D01*
X2729330Y1396830D01*
X2740000Y1399000D01*
X2750670Y1396830D01*
X2760000Y1388170D01*
X2768000Y1375170D01*
X2773330Y1360000D01*
X2776000Y1342670D01*
Y1325330D01*
X2773330Y1308000D01*
X2768000Y1292830D01*
X2760000Y1279830D01*
X2750670Y1271170D01*
X2740000Y1269000D01*
G01X2750670Y1303670D02*
X2766670Y1269000D01*
G01X2853020D02*
X2862350Y1271170D01*
X2873020Y1277660D01*
X2879690Y1288500D01*
X2882350Y1303670D01*
X2879690Y1318830D01*
X2871690Y1331830D01*
X2859690Y1338330D01*
X2846350D01*
X2838350Y1342670D01*
X2831690Y1353500D01*
X2829020Y1368670D01*
X2833020Y1383830D01*
X2842350Y1394670D01*
X2853020Y1399000D01*
X2863690Y1394670D01*
X2873020Y1383830D01*
X2877020Y1368670D01*
X2874350Y1353500D01*
X2867690Y1342670D01*
X2859690Y1338330D01*
X2846350D01*
X2834350Y1331830D01*
X2826350Y1318830D01*
X2823690Y1303670D01*
X2826350Y1288500D01*
X2833020Y1277660D01*
X2843690Y1271170D01*
X2853020Y1269000D01*
G01X2996830Y2079000D02*
Y2209000D01*
X3030170D01*
X3040830Y2202500D01*
X3047500Y2193830D01*
X3050170Y2176500D01*
X3047500Y2159170D01*
X3039500Y2148330D01*
X3030170Y2141830D01*
X2996830D01*
G01X3030170D02*
X3050170Y2079000D01*
G01X3151760D02*
Y2209000D01*
X3135760Y2183000D01*
G01Y2079000D02*
X3167760D01*
G01X3277350D02*
X3280020Y2107160D01*
X3284020Y2131000D01*
X3289350Y2152670D01*
X3296020Y2176500D01*
X3306690Y2209000D01*
X3253350D01*
G01X2618500Y2133000D02*
X2607830Y2135170D01*
X2598500Y2143830D01*
X2590500Y2156830D01*
X2585170Y2172000D01*
X2582500Y2189330D01*
Y2206670D01*
X2585170Y2224000D01*
X2590500Y2239170D01*
X2598500Y2252170D01*
X2607830Y2260830D01*
X2618500Y2263000D01*
X2629170Y2260830D01*
X2638500Y2252170D01*
X2646500Y2239170D01*
X2651830Y2224000D01*
X2654500Y2206670D01*
Y2189330D01*
X2651830Y2172000D01*
X2646500Y2156830D01*
X2638500Y2143830D01*
X2629170Y2135170D01*
X2618500Y2133000D01*
G01X2629170Y2167670D02*
X2645170Y2133000D01*
G01X2731520D02*
Y2263000D01*
X2715520Y2237000D01*
G01Y2133000D02*
X2747520D01*
G01X2844540Y2263000D02*
X2833870Y2258670D01*
X2825870Y2247830D01*
X2820540Y2234840D01*
X2816540Y2217500D01*
X2815210Y2198000D01*
X2816540Y2178500D01*
X2820540Y2161160D01*
X2825870Y2148160D01*
X2833870Y2137330D01*
X2844540Y2133000D01*
X2855210Y2137330D01*
X2863210Y2148160D01*
X2868540Y2161160D01*
X2872540Y2178500D01*
X2873870Y2198000D01*
X2872540Y2217500D01*
X2868540Y2234840D01*
X2863210Y2247830D01*
X2855210Y2258670D01*
X2844540Y2263000D01*
G01X3239500Y2727000D02*
X3228830Y2729170D01*
X3219500Y2737830D01*
X3211500Y2750830D01*
X3206170Y2766000D01*
X3203500Y2783330D01*
Y2800670D01*
X3206170Y2818000D01*
X3211500Y2833170D01*
X3219500Y2846170D01*
X3228830Y2854830D01*
X3239500Y2857000D01*
X3250170Y2854830D01*
X3259500Y2846170D01*
X3267500Y2833170D01*
X3272830Y2818000D01*
X3275500Y2800670D01*
Y2783330D01*
X3272830Y2766000D01*
X3267500Y2750830D01*
X3259500Y2737830D01*
X3250170Y2729170D01*
X3239500Y2727000D01*
G01X3250170Y2761670D02*
X3266170Y2727000D01*
G01X3352520D02*
Y2857000D01*
X3336520Y2831000D01*
G01Y2727000D02*
X3368520D01*
G01X3436210Y2753000D02*
X3444210Y2737830D01*
X3454870Y2729170D01*
X3466870Y2727000D01*
X3477540Y2729170D01*
X3488210Y2740000D01*
X3494870Y2753000D01*
X3496210Y2766000D01*
X3493540Y2781160D01*
X3484210Y2792000D01*
X3474870Y2796330D01*
X3462870D01*
G01X3474870D02*
X3482870Y2802830D01*
X3489540Y2813660D01*
X3492210Y2826670D01*
X3489540Y2839670D01*
X3482870Y2850500D01*
X3470870Y2857000D01*
X3458870Y2854830D01*
X3446870Y2846170D01*
G01X3145000Y3199500D02*
X3134330Y3201670D01*
X3125000Y3210330D01*
X3117000Y3223330D01*
X3111670Y3238500D01*
X3109000Y3255830D01*
Y3273170D01*
X3111670Y3290500D01*
X3117000Y3305670D01*
X3125000Y3318670D01*
X3134330Y3327330D01*
X3145000Y3329500D01*
X3155670Y3327330D01*
X3165000Y3318670D01*
X3173000Y3305670D01*
X3178330Y3290500D01*
X3181000Y3273170D01*
Y3255830D01*
X3178330Y3238500D01*
X3173000Y3223330D01*
X3165000Y3210330D01*
X3155670Y3201670D01*
X3145000Y3199500D01*
G01X3155670Y3234170D02*
X3171670Y3199500D01*
G01X3232690Y3307830D02*
X3240690Y3320830D01*
X3250020Y3327330D01*
X3260690Y3329500D01*
X3274020Y3325170D01*
X3283350Y3314330D01*
X3286020Y3301340D01*
X3284690Y3288330D01*
X3279350Y3277500D01*
X3252690Y3255830D01*
X3240690Y3240670D01*
X3232690Y3219000D01*
X3230020Y3199500D01*
X3286020D01*
G01X2956330Y3537000D02*
Y3667000D01*
X2989670D01*
X3000330Y3660500D01*
X3007000Y3651830D01*
X3009670Y3634500D01*
X3007000Y3617170D01*
X2999000Y3606330D01*
X2989670Y3599830D01*
X2956330D01*
G01X2989670D02*
X3009670Y3537000D01*
G01X3088590Y3552160D02*
X3097930Y3541330D01*
X3108590Y3537000D01*
X3119260Y3541330D01*
X3128590Y3554330D01*
X3135260Y3573830D01*
X3137930Y3593330D01*
Y3617170D01*
X3135260Y3636670D01*
X3128590Y3654000D01*
X3120590Y3662670D01*
X3111260Y3667000D01*
X3100590Y3662670D01*
X3092590Y3654000D01*
X3087260Y3641000D01*
X3084590Y3623660D01*
X3087260Y3608500D01*
X3093930Y3593330D01*
X3101930Y3584660D01*
X3111260Y3582500D01*
X3121930Y3586830D01*
X3129930Y3597670D01*
X3137930Y3617170D01*
G01X3482830Y1174500D02*
Y1304500D01*
X3516170D01*
X3526830Y1298000D01*
X3533500Y1289330D01*
X3536170Y1272000D01*
X3533500Y1254670D01*
X3525500Y1243830D01*
X3516170Y1237330D01*
X3482830D01*
G01X3516170D02*
X3536170Y1174500D01*
G01X3637760D02*
Y1304500D01*
X3621760Y1278500D01*
G01Y1174500D02*
X3653760D01*
G01X3736690Y1194000D02*
X3744690Y1183160D01*
X3754020Y1176670D01*
X3766020Y1174500D01*
X3778020Y1178830D01*
X3787350Y1187500D01*
X3794020Y1202660D01*
X3795350Y1220000D01*
X3792690Y1237330D01*
X3786020Y1248170D01*
X3776690Y1256830D01*
X3767350Y1259000D01*
X3758020Y1256830D01*
X3746020Y1248170D01*
X3750020Y1304500D01*
X3786020D01*
G01X3617830Y2604500D02*
X3624500Y2591500D01*
X3632500Y2582830D01*
X3641830Y2578500D01*
X3652500Y2582830D01*
X3660500Y2591500D01*
X3668500Y2604500D01*
X3671170Y2621830D01*
Y2708500D01*
G01X3743430Y2598000D02*
X3751430Y2587160D01*
X3760760Y2580670D01*
X3772760Y2578500D01*
X3784760Y2582830D01*
X3794090Y2591500D01*
X3800760Y2606660D01*
X3802090Y2624000D01*
X3799430Y2641330D01*
X3792760Y2652170D01*
X3783430Y2660830D01*
X3774090Y2663000D01*
X3764760Y2660830D01*
X3752760Y2652170D01*
X3756760Y2708500D01*
X3792760D01*
G54D11*
G01X188830Y148500D02*
Y248500D01*
X222170D01*
X235500Y243500D01*
X245500Y236830D01*
X253830Y226830D01*
X260500Y215160D01*
X262170Y198500D01*
X260500Y181830D01*
X253830Y170170D01*
X245500Y160160D01*
X235500Y153500D01*
X222170Y148500D01*
X188830D01*
G01X307410D02*
Y248500D01*
X349070D01*
X362410Y243500D01*
X370740Y236830D01*
X374070Y223500D01*
X370740Y210170D01*
X360740Y201830D01*
X349070Y196830D01*
X307410D01*
G01X349070D02*
X374070Y148500D01*
G01X414310D02*
X455980Y248500D01*
X497650Y148500D01*
G01X482650Y183500D02*
X429310D01*
G01X581220Y198500D02*
X614550D01*
Y168500D01*
X604550Y158500D01*
X592890Y151830D01*
X576220Y148500D01*
X559550Y151830D01*
X547890Y158500D01*
X537890Y168500D01*
X531220Y180170D01*
X527890Y193500D01*
Y205170D01*
X531220Y215160D01*
X537890Y226830D01*
X547890Y236830D01*
X557880Y243500D01*
X571220Y248500D01*
X582890D01*
X596220Y245170D01*
X606220Y238500D01*
G01X686460Y148500D02*
X673120Y150170D01*
X661460Y156830D01*
X651460Y166830D01*
X644790Y178500D01*
X641460Y191830D01*
Y205170D01*
X644790Y218500D01*
X651460Y230170D01*
X661460Y240170D01*
X673120Y246830D01*
X686460Y248500D01*
X699790Y246830D01*
X711460Y240170D01*
X721460Y230170D01*
X728130Y218500D01*
X731460Y205170D01*
Y191830D01*
X728130Y178500D01*
X721460Y166830D01*
X711460Y156830D01*
X699790Y150170D01*
X686460Y148500D01*
G01X801700Y248500D02*
Y148500D01*
G01X763370Y248500D02*
X840030D01*
G01X916940Y148500D02*
X903600Y150170D01*
X891940Y156830D01*
X881940Y166830D01*
X875270Y178500D01*
X871940Y191830D01*
Y205170D01*
X875270Y218500D01*
X881940Y230170D01*
X891940Y240170D01*
X903600Y246830D01*
X916940Y248500D01*
X930270Y246830D01*
X941940Y240170D01*
X951940Y230170D01*
X958610Y218500D01*
X961940Y205170D01*
Y191830D01*
X958610Y178500D01*
X951940Y166830D01*
X941940Y156830D01*
X930270Y150170D01*
X916940Y148500D01*
G01X993850D02*
Y248500D01*
X1070510Y148500D01*
Y248500D01*
G01X1127420D02*
X1167420D01*
G01X1147420D02*
Y148500D01*
G01X1127420D02*
X1167420D01*
G01X1225990Y248500D02*
Y176830D01*
X1232660Y161830D01*
X1245990Y151830D01*
X1262660Y148500D01*
X1279330Y151830D01*
X1292660Y161830D01*
X1299330Y176830D01*
Y248500D01*
G01X1473140D02*
X1513140D01*
G01X1493140D02*
Y148500D01*
G01X1473140D02*
X1513140D01*
G01X1608380D02*
X1595040Y150170D01*
X1583380Y156830D01*
X1573380Y166830D01*
X1566710Y178500D01*
X1563380Y191830D01*
Y205170D01*
X1566710Y218500D01*
X1573380Y230170D01*
X1583380Y240170D01*
X1595040Y246830D01*
X1608380Y248500D01*
X1621710Y246830D01*
X1633380Y240170D01*
X1643380Y230170D01*
X1650050Y218500D01*
X1653380Y205170D01*
Y191830D01*
X1650050Y178500D01*
X1643380Y166830D01*
X1633380Y156830D01*
X1621710Y150170D01*
X1608380Y148500D01*
G01X1685290D02*
Y248500D01*
X1761950Y148500D01*
Y248500D01*
G01X1802190D02*
Y176830D01*
X1808860Y161830D01*
X1822190Y151830D01*
X1838860Y148500D01*
X1855530Y151830D01*
X1868860Y161830D01*
X1875530Y176830D01*
Y248500D01*
G01X1954100D02*
Y148500D01*
G01X1915770Y248500D02*
X1992430D01*
G01X2047670Y181830D02*
X2091010D01*
G01X2221250Y240170D02*
X2211250Y245170D01*
X2199580Y248500D01*
X2186250D01*
X2171240Y243500D01*
X2159580Y235170D01*
X2151250Y225170D01*
X2144580Y208500D01*
X2142910Y193500D01*
X2146250Y178500D01*
X2151250Y168500D01*
X2161250Y158500D01*
X2172910Y151830D01*
X2184580Y148500D01*
X2196250D01*
X2207910Y151830D01*
X2217910Y156830D01*
X2226250Y163500D01*
G01X2299820Y148500D02*
X2286480Y150170D01*
X2274820Y156830D01*
X2264820Y166830D01*
X2258150Y178500D01*
X2254820Y191830D01*
Y205170D01*
X2258150Y218500D01*
X2264820Y230170D01*
X2274820Y240170D01*
X2286480Y246830D01*
X2299820Y248500D01*
X2313150Y246830D01*
X2324820Y240170D01*
X2334820Y230170D01*
X2341490Y218500D01*
X2344820Y205170D01*
Y191830D01*
X2341490Y178500D01*
X2334820Y166830D01*
X2324820Y156830D01*
X2313150Y150170D01*
X2299820Y148500D01*
G01X2376730D02*
Y248500D01*
X2453390Y148500D01*
Y248500D01*
G01X2495300Y161830D02*
X2508630Y153500D01*
X2523630Y148500D01*
X2536970D01*
X2550300Y153500D01*
X2560300Y161830D01*
X2565300Y173500D01*
X2561970Y185160D01*
X2553630Y195170D01*
X2538630Y201830D01*
X2518630Y205170D01*
X2506970Y211830D01*
X2501970Y223500D01*
X2505300Y235170D01*
X2513630Y243500D01*
X2525300Y248500D01*
X2536970D01*
X2548630Y245170D01*
X2558630Y236830D01*
G01X2645540Y248500D02*
Y148500D01*
G01X2607210Y248500D02*
X2683870D01*
G01X2719110Y148500D02*
X2760780Y248500D01*
X2802450Y148500D01*
G01X2787450Y183500D02*
X2734110D01*
G01X2837690Y148500D02*
Y248500D01*
X2914350Y148500D01*
Y248500D01*
G01X2991260D02*
Y148500D01*
G01X2952930Y248500D02*
X3029590D01*
G01X3086500D02*
X3126500D01*
G01X3106500D02*
Y148500D01*
G01X3086500D02*
X3126500D01*
G01X3183410D02*
Y248500D01*
X3260070Y148500D01*
Y248500D01*
G01X3472220Y148500D02*
Y248500D01*
X3410550Y176830D01*
X3493890D01*
G01X3530790Y168500D02*
X3540790Y156830D01*
X3554120Y150170D01*
X3569130Y148500D01*
X3582460Y150170D01*
X3595790Y158500D01*
X3604130Y168500D01*
X3605790Y178500D01*
X3602460Y190160D01*
X3590790Y198500D01*
X3579130Y201830D01*
X3564130D01*
G01X3579130D02*
X3589130Y206830D01*
X3597460Y215160D01*
X3600790Y225170D01*
X3597460Y235170D01*
X3589130Y243500D01*
X3574130Y248500D01*
X3559130Y246830D01*
X3544130Y240170D01*
G01X3682700Y148500D02*
Y248500D01*
X3662700Y228500D01*
G01Y148500D02*
X3702700D01*
G01X3834610Y240170D02*
X3824610Y245170D01*
X3812940Y248500D01*
X3799610D01*
X3784600Y243500D01*
X3772940Y235170D01*
X3764610Y225170D01*
X3757940Y208500D01*
X3756270Y193500D01*
X3759610Y178500D01*
X3764610Y168500D01*
X3774610Y158500D01*
X3786270Y151830D01*
X3797940Y148500D01*
X3809610D01*
X3821270Y151830D01*
X3831270Y156830D01*
X3839610Y163500D01*
G01X858500Y1966000D02*
Y2056000D01*
G01X718190Y1856000D02*
X719570Y1945990D01*
G01X808180Y1854630D02*
X718190Y1856000D01*
G01X718500Y2076000D02*
Y2166000D01*
X808500D01*
G01X1734190Y967000D02*
X1735570Y1056990D01*
G01X1824180Y965630D02*
X1734190Y967000D01*
G01X1099190D02*
X1100570Y1056990D01*
G01X1189180Y965630D02*
X1099190Y967000D01*
G01X1734500Y1187000D02*
Y1277000D01*
X1824500D01*
G01X1239500Y1077000D02*
Y1167000D01*
G01X1099500Y1187000D02*
Y1277000D01*
X1189500D01*
G01X1569000Y2127000D02*
Y2037000D01*
G01X1709310Y2237000D02*
X1707930Y2147010D01*
G01X1619320Y2238370D02*
X1709310Y2237000D01*
G01X1709000Y2017000D02*
Y1927000D01*
X1619000D01*
G01X1183500Y3039000D02*
Y2949000D01*
G01X1323810Y3149000D02*
X1322430Y3059010D01*
G01X1233820Y3150370D02*
X1323810Y3149000D01*
G01X1323500Y2929000D02*
Y2839000D01*
X1233500D01*
G01X2149670Y283500D02*
Y383500D01*
X2189670D01*
X2203000Y378500D01*
X2213000Y366830D01*
X2216330Y353500D01*
X2213000Y340170D01*
X2204670Y330170D01*
X2189670Y325160D01*
X2149670D01*
G01X2298240Y283500D02*
Y383500D01*
X2278240Y363500D01*
G01Y283500D02*
X2318240D01*
G01X2376810D02*
Y383500D01*
X2410150D01*
X2423480Y378500D01*
X2433480Y371830D01*
X2441810Y361830D01*
X2448480Y350160D01*
X2450150Y333500D01*
X2448480Y316830D01*
X2441810Y305170D01*
X2433480Y295160D01*
X2423480Y288500D01*
X2410150Y283500D01*
X2376810D01*
G01X2565390Y375170D02*
X2555390Y380170D01*
X2543720Y383500D01*
X2530390D01*
X2515380Y378500D01*
X2503720Y370170D01*
X2495390Y360170D01*
X2488720Y343500D01*
X2487050Y328500D01*
X2490390Y313500D01*
X2495390Y303500D01*
X2505390Y293500D01*
X2517050Y286830D01*
X2528720Y283500D01*
X2540390D01*
X2552050Y286830D01*
X2562050Y291830D01*
X2570390Y298500D01*
G01X2677290Y283500D02*
X2610630D01*
Y383500D01*
X2677290D01*
G01X2650630Y335170D02*
X2610630D01*
G01X2842770Y366830D02*
X2852770Y376830D01*
X2864440Y381830D01*
X2877770Y383500D01*
X2894440Y380170D01*
X2906110Y371830D01*
X2909440Y361830D01*
X2907770Y351830D01*
X2901110Y343500D01*
X2867770Y326830D01*
X2852770Y315170D01*
X2842770Y298500D01*
X2839440Y283500D01*
X2909440D01*
G01X2989680Y383500D02*
X2976340Y380170D01*
X2966350Y371830D01*
X2959680Y361830D01*
X2954680Y348500D01*
X2953010Y333500D01*
X2954680Y318500D01*
X2959680Y305170D01*
X2966350Y295160D01*
X2976340Y286830D01*
X2989680Y283500D01*
X3003010Y286830D01*
X3013010Y295160D01*
X3019680Y305170D01*
X3024680Y318500D01*
X3026350Y333500D01*
X3024680Y348500D01*
X3019680Y361830D01*
X3013010Y371830D01*
X3003010Y380170D01*
X2989680Y383500D01*
G01X3073250Y366830D02*
X3083250Y376830D01*
X3094920Y381830D01*
X3108250Y383500D01*
X3124920Y380170D01*
X3136590Y371830D01*
X3139920Y361830D01*
X3138250Y351830D01*
X3131590Y343500D01*
X3098250Y326830D01*
X3083250Y315170D01*
X3073250Y298500D01*
X3069920Y283500D01*
X3139920D01*
G01X3183490Y298500D02*
X3193490Y290170D01*
X3205160Y285170D01*
X3220160Y283500D01*
X3235160Y286830D01*
X3246830Y293500D01*
X3255160Y305170D01*
X3256830Y318500D01*
X3253490Y331830D01*
X3245160Y340170D01*
X3233490Y346830D01*
X3221830Y348500D01*
X3210160Y346830D01*
X3195160Y340170D01*
X3200160Y383500D01*
X3245160D01*
G01X3313730Y316830D02*
X3357070D01*
G01X3418970Y366830D02*
X3428970Y376830D01*
X3440640Y381830D01*
X3453970Y383500D01*
X3470640Y380170D01*
X3482310Y371830D01*
X3485640Y361830D01*
X3483970Y351830D01*
X3477310Y343500D01*
X3443970Y326830D01*
X3428970Y315170D01*
X3418970Y298500D01*
X3415640Y283500D01*
X3485640D01*
G01X3565880Y383500D02*
X3552540Y380170D01*
X3542550Y371830D01*
X3535880Y361830D01*
X3530880Y348500D01*
X3529210Y333500D01*
X3530880Y318500D01*
X3535880Y305170D01*
X3542550Y295160D01*
X3552540Y286830D01*
X3565880Y283500D01*
X3579210Y286830D01*
X3589210Y295160D01*
X3595880Y305170D01*
X3600880Y318500D01*
X3602550Y333500D01*
X3600880Y348500D01*
X3595880Y361830D01*
X3589210Y371830D01*
X3579210Y380170D01*
X3565880Y383500D01*
G01X3649450Y366830D02*
X3659450Y376830D01*
X3671120Y381830D01*
X3684450Y383500D01*
X3701120Y380170D01*
X3712790Y371830D01*
X3716120Y361830D01*
X3714450Y351830D01*
X3707790Y343500D01*
X3674450Y326830D01*
X3659450Y315170D01*
X3649450Y298500D01*
X3646120Y283500D01*
X3716120D01*
G01X3764690Y325160D02*
X3776360Y336830D01*
X3786360Y343500D01*
X3799690Y346830D01*
X3811360Y343500D01*
X3819690Y336830D01*
X3826360Y326830D01*
X3828030Y315170D01*
X3826360Y305170D01*
X3819690Y295160D01*
X3809690Y286830D01*
X3798030Y283500D01*
X3784690Y286830D01*
X3773030Y296830D01*
X3766360Y311830D01*
X3764690Y328500D01*
X3768030Y350160D01*
X3773030Y361830D01*
X3781360Y373500D01*
X3793030Y381830D01*
X3804690Y383500D01*
X3816360Y380170D01*
X3824690Y371830D01*
G01X2432690Y1094000D02*
X2434070Y1183990D01*
G01X2522680Y1092630D02*
X2432690Y1094000D01*
G01X2433000Y1314000D02*
Y1404000D01*
X2523000D01*
G01X1874500Y1077000D02*
Y1167000D01*
G01X3229500Y1377000D02*
Y1467000D01*
G01X3089190Y1267000D02*
X3090570Y1356990D01*
G01X3179180Y1265630D02*
X3089190Y1267000D01*
G01X3089500Y1487000D02*
Y1577000D01*
X3179500D01*
G01X2573000Y1204000D02*
Y1294000D01*
G01X2797500Y1917000D02*
Y2007000D01*
G01X2657190Y1807000D02*
X2658570Y1896990D01*
G01X2747180Y1805630D02*
X2657190Y1807000D01*
G01X2657500Y2027000D02*
Y2117000D01*
X2747500D01*
G01X3067500Y2673000D02*
Y2763000D01*
G01X2927190Y2563000D02*
X2928570Y2652990D01*
G01X3017180Y2561630D02*
X2927190Y2563000D01*
G01X2927500Y2783000D02*
Y2873000D01*
X3017500D01*
G01X2911500Y3147000D02*
Y3057000D01*
G01X3051810Y3257000D02*
X3050430Y3167010D01*
G01X2961820Y3258370D02*
X3051810Y3257000D01*
G01X3051500Y3037000D02*
Y2947000D01*
X2961500D01*
G54D12*
G01X193630Y730500D02*
Y349500D01*
G01D02*
X1069930D01*
G01Y730500D02*
X193630D01*
G01X153000Y2378870D02*
Y1502570D01*
G01D02*
X534000D01*
G01X653380Y1221750D02*
X246980D01*
G01D02*
Y1412250D01*
G01D02*
X653380D01*
G01X534000Y2378870D02*
X153000D01*
G01X199630Y3775500D02*
Y3394500D01*
G01D02*
X1075930D01*
G01Y3775500D02*
X199630D01*
G01X534000Y1502570D02*
Y2378870D01*
G01X653380Y1412250D02*
Y1221750D01*
G01X1139380Y2355750D02*
X732980D01*
G01D02*
Y2546250D01*
G01D02*
X1139380D01*
G01X1069930Y349500D02*
Y730500D01*
G01X1464750Y870880D02*
Y464480D01*
G01D02*
X1274250D01*
G01D02*
Y870880D01*
G01D02*
X1464750D01*
G01X1788750Y464480D02*
X1598250D01*
G01D02*
Y870880D01*
G01D02*
X1788750D01*
G01X1517380Y1437750D02*
X1110980D01*
G01D02*
Y1628250D01*
G01D02*
X1517380D01*
G01D02*
Y1437750D01*
G01X2003380Y1653750D02*
X1596980D01*
G01D02*
Y1844250D01*
G01X1301250Y2152380D02*
Y1745980D01*
G01D02*
X1110750D01*
G01D02*
Y2152380D01*
G01X1761620Y1574250D02*
X2168020D01*
G01Y1383750D02*
X1761620D01*
G01D02*
Y1574250D01*
G01X1842750Y2462480D02*
X1652250D01*
G01D02*
Y2868880D01*
G01X1596980Y1844250D02*
X2003380D01*
G01X1139380Y2546250D02*
Y2355750D01*
G01X1464750Y2706880D02*
Y2300480D01*
G01D02*
X1274250D01*
G01D02*
Y2706880D01*
G01X1110750Y2152380D02*
X1301250D01*
G01X2064880Y2996250D02*
X1658480D01*
G01D02*
Y3186750D01*
G01D02*
X2064880D01*
G01X1652250Y2868880D02*
X1842750D01*
G01X1274250Y2706880D02*
X1464750D01*
G01X2068220Y3228150D02*
X1666900D01*
G01D02*
Y3339910D01*
G01X1075930Y3394500D02*
Y3775500D01*
G01X1410750Y3786880D02*
Y3380480D01*
G01D02*
X1220250D01*
G01D02*
Y3786880D01*
G01D02*
X1410750D01*
G01X1711780Y3886350D02*
X2113100D01*
G01Y3619650D02*
X1711780D01*
G01D02*
Y3886350D01*
G01X1666900Y3339910D02*
X1645310Y3361500D01*
G01D02*
X1666900Y3383090D01*
G01D02*
Y3494850D01*
G01D02*
X2068220D01*
G01X1788750Y870880D02*
Y464480D01*
G01X2759380Y681750D02*
X2352980D01*
G01D02*
Y872250D01*
G01D02*
X2759380D01*
G01X2402380Y458250D02*
X1995980D01*
G01D02*
Y648750D01*
G01D02*
X2402380D01*
G01D02*
Y458250D01*
G01X2492020Y1898250D02*
Y1707750D01*
G01D02*
X2085620D01*
G01D02*
Y1898250D01*
G01X2003380Y1844250D02*
Y1653750D01*
G01X2168020Y1574250D02*
Y1383750D01*
G01X1842750Y2868880D02*
Y2462480D01*
G01X2112750Y2868880D02*
Y2462480D01*
G01D02*
X1922250D01*
G01D02*
Y2868880D01*
G01X2192250Y2465120D02*
Y2871520D01*
G01X2382750D02*
Y2465120D01*
G01D02*
X2192250D01*
G01X2489380Y2085750D02*
X2082980D01*
G01D02*
Y2276250D01*
G01D02*
X2489380D01*
G01D02*
Y2085750D01*
G01X2085620Y1898250D02*
X2492020D01*
G01X2064880Y3186750D02*
Y2996250D01*
G01X1922250Y2868880D02*
X2112750D01*
G01X2192250Y2871520D02*
X2382750D01*
G01X2068220Y3494850D02*
Y3228150D01*
G01X2113100Y3886350D02*
Y3774590D01*
G01D02*
X2134690Y3753000D01*
G01D02*
X2113100Y3731410D01*
G01D02*
Y3619650D01*
G01X2759380Y872250D02*
Y681750D01*
G01X3407380Y1869750D02*
X3000980D01*
G01D02*
Y2060250D01*
G01D02*
X3407380D01*
G01X2922750Y3840880D02*
Y3434480D01*
G01D02*
X2732250D01*
G01D02*
Y3840880D01*
G01D02*
X2922750D01*
G01X3447000Y2540870D02*
Y1664570D01*
G01D02*
X3828000D01*
G01D02*
Y2540870D01*
G01X3839380Y1383750D02*
X3432980D01*
G01D02*
Y1574250D01*
G01D02*
X3839380D01*
G01D02*
Y1383750D01*
G01X3828000Y2540870D02*
X3447000D01*
G01X3407380Y2060250D02*
Y1869750D01*
M02*
