G04 ================== begin FILE IDENTIFICATION RECORD ==================*
G04 Layout Name:  C:/Users/drago/Desktop/PROIECT1-CEF-FINAL/P1-CEF-DRAGOTONIU.brd*
G04 Film Name:    TOP*
G04 File Format:  Gerber RS274X*
G04 File Origin:  Cadence Allegro 17.2-S025*
G04 Origin Date:  Fri Dec 05 18:12:10 2025*
G04 *
G04 Layer:  ETCH/TOP*
G04 Layer:  PIN/TOP*
G04 Layer:  VIA CLASS/TOP*
G04 *
G04 Offset:    (0.1500 0.0000)*
G04 Mirror:    No*
G04 Mode:      Positive*
G04 Rotation:  0*
G04 FullContactRelief:  No*
G04 UndefLineWidth:     0.0000*
G04 ================== end FILE IDENTIFICATION RECORD ====================*
%FSLAX25Y25*MOMM*%
%IR0*IPPOS*OFA0.15000B0.00000*MIA0B0*SFA1.00000B1.00000*%
%ADD12C,.8*%
%ADD14R,1.27X.9144*%
%ADD15C,1.*%
%ADD13R,1.27X1.27*%
%ADD16R,1.2192X1.9304*%
%ADD11R,3.048X1.9304*%
%ADD10R,1.9304X3.048*%
%ADD17C,.4*%
%ADD18C,.65*%
G75*
%LPD*%
G75*
G54D10*
X332060Y540000D03*
X338060Y3585000D03*
X931500Y540000D03*
X937500Y3585000D03*
G54D11*
X343500Y1641000D03*
Y2240440D03*
X3637500Y1803000D03*
Y2402440D03*
G54D12*
X513000Y972000D03*
X682760Y1755000D03*
Y1134000D03*
X702000Y2268000D03*
X513000Y2605500D03*
X829500Y2632500D03*
X702000Y2767500D03*
X1539000Y931500D03*
X1620000Y1390500D03*
X1539000Y1228500D03*
X1471500Y3307500D03*
X1512000Y3442500D03*
X1971000Y823500D03*
X2051140Y1694000D03*
X1890000Y2082860D03*
X2335500Y1957500D03*
X2497500Y2632500D03*
X2227500Y3307500D03*
X3259500Y877500D03*
X2646000Y1593000D03*
X3259500Y1741500D03*
X2808000Y1701000D03*
X3078000Y2214000D03*
X2659500Y2268000D03*
X3253500Y2295000D03*
X2956500Y2214000D03*
X3321000Y3078000D03*
Y2619000D03*
X2592000Y2889000D03*
Y3564000D03*
X3402000Y972000D03*
X3631500Y2821280D03*
G54D13*
X343500Y1317000D03*
X556860D03*
X829500Y2451000D03*
X1042860D03*
X1369500Y561000D03*
Y774360D03*
X1693500Y561000D03*
Y774360D03*
X1207500Y1533000D03*
X1420860D03*
X1693500Y1749000D03*
X1747500Y2559000D03*
X1369500Y2397000D03*
X1206000Y1842500D03*
Y2055860D03*
X1755000Y3091500D03*
X1747500Y2772360D03*
X1369500Y2610360D03*
X1315500Y3477000D03*
Y3690360D03*
X2449500Y777000D03*
X2092500Y553500D03*
X2305860D03*
X2395500Y1803000D03*
X2182140D03*
X1906860Y1749000D03*
X2071500Y1479000D03*
X1858140D03*
X2017500Y2559000D03*
X2287500Y2561640D03*
X2179500Y2181000D03*
X2392860D03*
X1968360Y3091500D03*
X2017500Y2772360D03*
X2287500Y2775000D03*
X2662860Y777000D03*
X3097500Y1965000D03*
X3310860D03*
X2827500Y3531000D03*
Y3744360D03*
X3529500Y1479000D03*
X3742860D03*
G54D14*
X1063760Y1121140D03*
X682760Y2010140D03*
X888500Y1906000D03*
Y2114280D03*
X1269500Y1017000D03*
X1698760Y1121140D03*
X1269500Y1225280D03*
X1744740Y2082860D03*
X1539000Y2187000D03*
Y1978720D03*
X1359240Y2994860D03*
X1153500Y3099000D03*
Y2890720D03*
X1904500Y1017000D03*
X2397260Y1248140D03*
X2603000Y1144000D03*
Y1352280D03*
X1904500Y1225280D03*
X3053760Y1421140D03*
X3259500Y1317000D03*
Y1525280D03*
X2621760Y1961140D03*
X2827500Y1857000D03*
Y2065280D03*
X2891760Y2717140D03*
X3097500Y2613000D03*
Y2821280D03*
X3087240Y3102860D03*
X2881500Y3207000D03*
Y2998720D03*
G54D15*
X500000Y3200000D03*
X3500000Y800000D03*
G54D16*
X1768500Y3361500D03*
X1810840Y3753000D03*
X1969160Y3361500D03*
X2011500Y3753000D03*
G54D17*
G01X682760Y2010140D02*
Y1755000D01*
G01Y1134000D02*
X954700D01*
X967560Y1121140D01*
X1063760D01*
G01X888500Y2114280D02*
X990720D01*
X1039500Y2065500D01*
Y1912800D01*
X1109800Y1842500D01*
X1206000D01*
G01X702000Y2268000D02*
X1112000D01*
X1206000Y2174000D01*
Y2055860D01*
G01X702000Y2767500D02*
X1359240D01*
G01X1315500Y3477000D02*
X1219300D01*
X1035000Y3292700D01*
Y2913020D01*
X1057300Y2890720D01*
X1153500D01*
G01X1904500Y904500D02*
X1738760D01*
X1698760Y944500D01*
Y1121140D01*
G01D02*
X1526140D01*
X1422000Y1017000D01*
X1269500D01*
G01X1369500Y774360D02*
X1465700D01*
X1539000Y847660D01*
Y931500D01*
G01X1904500Y1225280D02*
X2052000D01*
Y918500D01*
X2066000Y904500D01*
Y784140D01*
X2010360Y728500D01*
X1835560D01*
X1789700Y774360D01*
X1693500D01*
G01X1620000Y1390500D02*
X1684500Y1326000D01*
X1990790D01*
X1993790Y1323000D01*
X2044500D01*
X2071500Y1350000D01*
G01X1207500Y1533000D02*
Y1639210D01*
X1420500Y1852210D01*
Y2187000D01*
G01X1420860Y1533000D02*
X1627500D01*
X1693500Y1599000D01*
Y1749000D01*
G01X1539000Y1228500D02*
X1368920D01*
X1365700Y1225280D01*
X1269500D01*
G01X1744740Y2082860D02*
X1890000D01*
G01X1369500Y2397000D02*
X1444500Y2322000D01*
X1849500D01*
X1985000Y2186500D01*
Y2043500D01*
X1818000Y1876500D01*
X1539000D01*
Y1978720D01*
G01X1747500Y2559000D02*
X2017500D01*
G01X1042860Y2451000D02*
X1168500D01*
Y2393210D01*
X1374710Y2187000D01*
X1420500D01*
G01D02*
X1539000D01*
G01X1768500Y3361500D02*
X1598200D01*
X1544200Y3307500D01*
X1471500D01*
G01D02*
X1255490D01*
X1153500Y3205510D01*
Y3099000D01*
G01X1755000Y3091500D02*
Y2995300D01*
X1747500D01*
Y2772360D01*
G01X1359240Y2767500D02*
Y2994860D01*
G01Y2767500D02*
Y2716820D01*
X1369500Y2706560D01*
Y2610360D01*
G01X1971000Y823500D02*
Y838000D01*
X1904500Y904500D01*
G01D02*
Y1017000D01*
G01X2305860Y553500D02*
X2402060D01*
X2449500Y600940D01*
Y777000D01*
G01X2071500Y1350000D02*
Y1479000D01*
G01Y1350000D02*
Y1311850D01*
X2166000Y1217350D01*
Y1213140D01*
X2206000Y1173140D01*
X2210210D01*
X2236020Y1147330D01*
X2503470D01*
X2506800Y1144000D01*
X2603000D01*
G01X2397260Y1248140D02*
Y1566500D01*
G01D02*
X2531760Y1701000D01*
X2653500D01*
G01X2397260Y1566500D02*
X2357260Y1606500D01*
X2098000D01*
X2090500Y1599000D01*
X1881940D01*
X1858140Y1575200D01*
Y1479000D01*
G01X2392860Y2181000D02*
X2621760D01*
G01X2335500Y1957500D02*
X2182140D01*
G01D02*
Y1803000D01*
G01Y1957500D02*
Y2082160D01*
X2179500Y2084800D01*
Y2181000D01*
G01X2653500Y1701000D02*
X2551500Y1803000D01*
X2395500D01*
G01X1968360Y3091500D02*
X2227500D01*
G01D02*
Y3307500D01*
G01Y3091500D02*
X2669800D01*
X2785300Y3207000D01*
X2881500D01*
G01X2017500Y2772360D02*
X2191300D01*
Y2775000D01*
X2287500D01*
G01X1969160Y3361500D02*
Y3490720D01*
X2011500D01*
Y3753000D01*
G01X3259500Y877500D02*
Y1317000D01*
G01X2603000Y1352280D02*
X2772630D01*
X2788000Y1336910D01*
Y805940D01*
X2759060Y777000D01*
X2662860D01*
G01X2808000Y1701000D02*
X2653500D01*
G01X3310860Y1965000D02*
Y1890500D01*
X3216000D01*
Y1836500D01*
X2944200D01*
X2923700Y1857000D01*
X2827500D01*
G01X2621760Y2181000D02*
Y1961140D01*
G01X2659500Y2268000D02*
X2621760Y2230260D01*
Y2181000D01*
G01X3253500Y2295000D02*
Y2239500D01*
X3097500Y2083500D01*
Y1965000D01*
G01X2827500Y2065280D02*
X2956500D01*
Y2214000D01*
G01X2827500Y3531000D02*
X3111000D01*
X3481390Y3160610D01*
Y2981890D01*
X3421500Y2922000D01*
X2979000D01*
X2973000Y2916000D01*
X2881500D01*
Y2998720D01*
G01X3087240Y3102860D02*
X3321000D01*
Y3078000D01*
G01Y2619000D02*
X3199700D01*
X3193700Y2613000D01*
X3097500D01*
G54D18*
G01X513000Y972000D02*
X332060D01*
G01D02*
Y540000D01*
G01Y972000D02*
Y1196860D01*
X343500Y1208300D01*
Y1317000D01*
G01X931500Y540000D02*
X1260800D01*
Y561000D01*
X1369500D01*
G01X556860Y1317000D02*
Y1641000D01*
G01D02*
X563360Y1647500D01*
X727300D01*
X740300Y1660500D01*
X823500D01*
X888500Y1725500D01*
Y1906000D01*
G01X556860Y1641000D02*
X343500D01*
G01X829500Y2451000D02*
X338060D01*
G01X829500D02*
Y2632500D01*
G01X338060Y2451000D02*
Y2605500D01*
G01Y2451000D02*
Y2387600D01*
X343500Y2382160D01*
Y2240440D01*
G01X338060Y2605500D02*
Y3585000D01*
G01X513000Y2605500D02*
X338060D01*
G01X1315500Y3690360D02*
X1206800D01*
X1101440Y3585000D01*
X937500D01*
G01X1369500Y561000D02*
X1693500D01*
G01D02*
X1983800D01*
Y553500D01*
X2092500D01*
G01X1512000Y3442500D02*
Y3690360D01*
G01D02*
X1315500D01*
G01X1512000D02*
Y3753000D01*
X1810840D01*
G01X2092500Y553500D02*
Y444800D01*
X2145800Y391500D01*
X2565000D01*
X3053760Y880260D01*
Y1421140D01*
G01X1906860Y1749000D02*
X2051140D01*
Y1694000D01*
G01X2497500Y2402440D02*
X2287500D01*
Y2561640D01*
G01X2497500Y2632500D02*
Y2402440D01*
G01X3078000D02*
X2497500D01*
G01X3259500Y1741500D02*
X3344700D01*
X3404950Y1801750D01*
X3609250D01*
X3622750Y1788250D01*
G01X3259500Y1525280D02*
Y1741500D01*
G01D02*
X3119500D01*
X2971000Y1593000D01*
X2646000D01*
G01X3078000Y2214000D02*
Y2402440D01*
G01D02*
X3145940D01*
X3146000Y2402500D01*
X3360940D01*
X3361000Y2402440D01*
X3637500D01*
G01X2891760Y2717140D02*
X2763860D01*
X2592000Y2889000D01*
G01X3097500Y2821280D02*
X3631500D01*
G01X2592000Y3564000D02*
Y3744360D01*
X2827500D01*
G01X3529500Y1479000D02*
X3402000D01*
Y972000D01*
G01X3637500Y1803000D02*
X3622750Y1788250D01*
G01D02*
X3618000Y1783500D01*
Y1620000D01*
X3742860D01*
Y1479000D01*
M02*
